{"title":"Veergati (1995) Hindi DvD 2CD Rip Xvid Esub AC3 ( XMR )","uid":6169870,"size":1467299182,"categoryP":"video","categoryS":"movies","magnet":"?xt=urn:btih:d4d086775c1506f1b2876d494b5361d5ee45ef89&amp;dn=Veergati+%281995%29+Hindi+DvD+2CD+Rip+Xvid+Esub+AC3+%28+XMR+%29&amp;tr=udp%3A%2F%2Ftracker.openbittorrent.com%3A80&amp;tr=udp%3A%2F%2Fopen.demonii.com%3A1337&amp;tr=udp%3A%2F%2Ftracker.coppersurfer.tk%3A6969&amp;tr=udp%3A%2F%2Fexodus.desync.com%3A6969","seeders":0,"leechers":1,"uploader":"amanrulz","files":2,"time":1297528658,"description":"mastitorrents.com\n &lt;a href=&quot;\nhttp://mastitorrents.com/forums/index.php&quot; rel=&quot;nofollow&quot; target=&quot;_NEW&quot;&gt;\nhttp://mastitorrents.com/forums/index.php&lt;/a&gt;\n\nRipper                           : Rahul\nComplete name                    : Veergati (1995) \nFormat                           : AVI\nFormat/Info                      : Audio Video Interleave\nFile size                        : 1.37 GiB\nDuration                         : 2h 45mn\nOverall bit rate                 : 1 179 Kbps\nWriting application              : VirtualDubMod 1.5.10.3 | \n\nVideo\nID                               : 0\nFormat                           : MPEG-4 Visual\nFormat profile                   : Advanced Simple@L5\nFormat settings, BVOP            : Yes\nFormat settings, QPel            : No\nFormat settings, GMC             : No warppoints\nFormat settings, Matrix          : Default (MPEG)\nCodec ID                         : XVID\nCodec ID/Hint                    : XviD\nDuration                         : 2h 45mn\nBit rate                         : 976 Kbps\nWidth                            : 720 pixels\nHeight                           : 384 pixels\nDisplay aspect ratio             : 1.875\nFrame rate                       : 29.970 fps\nColor space                      : YUV\nChroma subsampling               : 4:2:0\nBit depth                        : 8 bits\nScan type                        : Interlaced\nScan order                       : Bottom Field First\nCompression mode                 : Lossy\nBits/(Pixel*Frame)               : 0.118\nStream size                      : 1.13 GiB (83%)\nWriting library                  : XviD 1.2.1 (UTC 2008-12-04)\n\nAudio\nID                               : 1\nFormat                           : AC-3\nFormat/Info                      : Audio Coding 3\nMode extension                   : CM (complete main)\nCodec ID                         : 2000\nDuration                         : 2h 45mn\nBit rate mode                    : Constant\nBit rate                         : 192 Kbps\nChannel(s)                       : 2 channels\nChannel positions                : Front: L R\nSampling rate                    : 48.0 KHz\nBit depth                        : 16 bits\nCompression mode                 : Lossy\nStream size                      : 228 MiB (16%)\nAlignment                        : Split accross interleaves\nInterleave, duration             : 33 ms (1.00 video frame)\nInterleave, preload duration     : 500 ms","torrent":{"xt":"urn:btih:d4d086775c1506f1b2876d494b5361d5ee45ef89","amp;dn":"Veergati+%281995%29+Hindi+DvD+2CD+Rip+Xvid+Esub+AC3+%28+XMR+%29","amp;tr":["udp%3A%2F%2Ftracker.openbittorrent.com%3A80","udp%3A%2F%2Fopen.demonii.com%3A1337","udp%3A%2F%2Ftracker.coppersurfer.tk%3A6969","udp%3A%2F%2Fexodus.desync.com%3A6969"],"infoHash":"d4d086775c1506f1b2876d494b5361d5ee45ef89","infoHashBuffer":{"type":"Buffer","data":[212,208,134,119,92,21,6,241,178,135,109,73,75,83,97,213,238,69,239,137]},"announce":[],"urlList":[]}}